<?xml version="1.0" encoding="UTF-8" standalone="no"?>
<!-- Creator: CorelDRAW Home & Student X6 -->

<svg
   xmlns:dc="http://purl.org/dc/elements/1.1/"
   xmlns:cc="http://creativecommons.org/ns#"
   xmlns:rdf="http://www.w3.org/1999/02/22-rdf-syntax-ns#"
   xmlns:svg="http://www.w3.org/2000/svg"
   xmlns="http://www.w3.org/2000/svg"
   xmlns:sodipodi="http://sodipodi.sourceforge.net/DTD/sodipodi-0.dtd"
   xmlns:inkscape="http://www.inkscape.org/namespaces/inkscape"
   xml:space="preserve"
   width="129"
   height="287"
   version="1.1"
   style="clip-rule:evenodd;fill-rule:evenodd;image-rendering:optimizeQuality;shape-rendering:geometricPrecision;text-rendering:geometricPrecision"
   viewBox="0 0 3640.6666 8099.7778"
   id="svg2"
   inkscape:version="0.91 r"
   sodipodi:docname="logo.svg"><metadata
     id="metadata106"><rdf:RDF><cc:Work
         rdf:about=""><dc:format>image/svg+xml</dc:format><dc:type
           rdf:resource="http://purl.org/dc/dcmitype/StillImage" /><dc:title></dc:title></cc:Work></rdf:RDF></metadata><sodipodi:namedview
     pagecolor="#ffffff"
     bordercolor="#666666"
     borderopacity="1"
     objecttolerance="10"
     gridtolerance="10"
     guidetolerance="10"
     inkscape:pageopacity="0"
     inkscape:pageshadow="2"
     inkscape:window-width="640"
     inkscape:window-height="480"
     id="namedview104"
     showgrid="false"
     units="px"
     inkscape:zoom="0.79824499"
     inkscape:cx="202.09524"
     inkscape:cy="195.72025"
     inkscape:window-x="1874"
     inkscape:window-y="208"
     inkscape:window-maximized="0"
     inkscape:current-layer="svg2" /><defs
     id="defs4"><style
       type="text/css"
       id="style6"><![CDATA[
    .str0 {stroke:#E7BD23;stroke-width:35.28;stroke-linecap:round;stroke-linejoin:round}
    .fil4 {fill:none}
    .fil6 {fill:#FEFEFE}
    .fil1 {fill:#727271}
    .fil10 {fill:#933931}
    .fil13 {fill:#A92E2F}
    .fil5 {fill:#BA3D3C}
    .fil14 {fill:#E29B62}
    .fil0 {fill:#FDF5CE;fill-rule:nonzero}
    .fil12 {fill:url(#id1)}
    .fil3 {fill:url(#id2)}
    .fil9 {fill:url(#id3)}
    .fil15 {fill:url(#id4)}
    .fil2 {fill:url(#id5)}
    .fil8 {fill:url(#id6)}
    .fil7 {fill:url(#id7)}
    .fil11 {fill:url(#id8)}
   ]]></style><clipPath
       id="id0"><path
         d="m 10944,6545 3993,0 -7,8586 -3993,0 7,-8586 z"
         id="path9"
         inkscape:connector-curvature="0" /></clipPath><linearGradient
       id="id1"
       gradientUnits="userSpaceOnUse"
       x1="11268.6"
       y1="10883.7"
       x2="14043.8"
       y2="10883.7"><stop
         offset="0"
         style="stop-color:#D0773E"
         id="stop12" /><stop
         offset="0.470588"
         style="stop-color:#E7BA9E"
         id="stop14" /><stop
         offset="1"
         style="stop-color:#FEFEFE"
         id="stop16" /></linearGradient><linearGradient
       id="id2"
       gradientUnits="userSpaceOnUse"
       x1="11390.3"
       y1="11818.7"
       x2="14522.3"
       y2="10758.7"><stop
         offset="0"
         style="stop-color:#FDD10E"
         id="stop19" /><stop
         offset="1"
         style="stop-color:#F6EACF"
         id="stop21" /></linearGradient><linearGradient
       id="id3"
       gradientUnits="userSpaceOnUse"
       x1="13952.5"
       y1="8984.2598"
       x2="11517.8"
       y2="10689"><stop
         offset="0"
         style="stop-color:#FEFEFE"
         id="stop24" /><stop
         offset="0.360784"
         style="stop-color:#E8CAB1"
         id="stop26" /><stop
         offset="1"
         style="stop-color:#D19563"
         id="stop28" /></linearGradient><linearGradient
       id="id4"
       gradientUnits="userSpaceOnUse"
       x1="15605.7"
       y1="6114.4199"
       x2="12257.7"
       y2="10557.4"><stop
         offset="0"
         style="stop-color:#C85A47"
         id="stop31" /><stop
         offset="0.490196"
         style="stop-color:#DA896B"
         id="stop33" /><stop
         offset="1"
         style="stop-color:#ECB98F"
         id="stop35" /></linearGradient><linearGradient
       id="id5"
       gradientUnits="userSpaceOnUse"
       x1="11873.5"
       y1="14372.5"
       x2="13968.5"
       y2="11401.2"><stop
         offset="0"
         style="stop-color:#FDD10E"
         id="stop38" /><stop
         offset="1"
         style="stop-color:#F6EDD5"
         id="stop40" /></linearGradient><linearGradient
       id="id6"
       gradientUnits="userSpaceOnUse"
       x1="12901.2"
       y1="8862.5996"
       x2="12791.5"
       y2="10137.8"><stop
         offset="0"
         style="stop-color:#9E4D34"
         id="stop43" /><stop
         offset="1"
         style="stop-color:#FEFEFE"
         id="stop45" /></linearGradient><linearGradient
       id="id7"
       gradientUnits="userSpaceOnUse"
       x1="12804"
       y1="7730.5"
       x2="14095.9"
       y2="7970.6602"><stop
         offset="0"
         style="stop-color:#F0C09E"
         id="stop48" /><stop
         offset="0.54902"
         style="stop-color:#E8B17A"
         id="stop50" /><stop
         offset="1"
         style="stop-color:#E0A155"
         id="stop52" /></linearGradient><radialGradient
       id="id8"
       gradientUnits="userSpaceOnUse"
       cx="6398.2822"
       cy="21921.523"
       r="823.50372"
       fx="6398.2822"
       fy="21921.523"
       gradientTransform="scale(2.0155993,0.49613036)"><stop
         offset="0"
         style="stop-color:#D59A4F"
         id="stop55" /><stop
         offset="0.529412"
         style="stop-color:#C46A3E"
         id="stop57" /><stop
         offset="1"
         style="stop-color:#B43B2D"
         id="stop59" /></radialGradient></defs><g
     id="_138681016"
     transform="translate(-11101.577,-6713.0374)"><ellipse
       class="fil1"
       cx="13137"
       cy="14839"
       rx="18"
       ry="17"
       id="ellipse62"
       style="fill:#727271" /><path
       class="fil2"
       d="m 11722,11582 c 96,820 262,2401 289,2460 77,171 1439,380 1525,46 l 592,-2295 -612,29 -571,-19 -582,-89 -641,-131 z"
       id="path64"
       style="fill:url(#id5)"
       inkscape:connector-curvature="0" /><path
       class="fil3"
       d="m 14348,11750 c 43,-63 101,-502 151,-753 -1396,8 -1732,-14 -3061,-264 16,265 7,766 90,805 42,19 694,210 1371,285 679,75 1386,17 1449,-73 z"
       id="path66"
       style="fill:url(#id2)"
       inkscape:connector-curvature="0" /><path
       class="fil4 str0"
       d="m 11729,11593 c 28,247 241,2304 286,2447 46,143 1432,424 1535,18 190,-746 380,-1491 570,-2237 -694,725 -1729,1172 -2215,1287 m -462,-2368 c 1551,295 1860,262 3056,258 -50,251 -84,594 -151,753 -34,80 -731,144 -1421,75 -676,-67 -1350,-270 -1398,-288 -94,-34 -72,-530 -85,-794 m 511,2850 c 733,300 1315,261 1682,129 m -821,-1910 c 399,347 755,560 1141,650 -605,614 -1280,910 -2010,1084 m 1313,260 c 165,-112 376,-315 484,-501 -806,-319 -1495,-946 -1875,-1674 m 1774,2047 c -877,-347 -1387,-858 -1857,-1617 m 1458,1747 c -661,-261 -953,-474 -1380,-993 m 837,986 c -360,-144 -541,-272 -790,-568 m 1928,-312 c -661,-317 -1160,-612 -1594,-1206 m 1806,383 c -216,-34 -418,-107 -597,-244 m -1596,833 c 624,-140 1160,-442 1630,-833 m -1679,403 c 433,-99 692,-213 1065,-440 m -240,1966 c 444,-199 1006,-631 1225,-929 m -2102,-1026 c 202,-36 264,-58 428,-125"
       id="path68"
       inkscape:connector-curvature="0"
       style="fill:none;stroke:#e7bd23;stroke-width:35.27999878;stroke-linecap:round;stroke-linejoin:round" /><path
       class="fil5"
       d="m 14419,9779 c 682,-405 -453,-1414 -447,-1615 -21,-743 6,-1511 -52,-1260 -578,1419 -559,430 -1088,2191 -240,-35 -731,22 -629,404 -134,22 -792,121 -453,598 l -110,214 c -284,27 -603,152 -335,372 210,253 2476,808 3161,263 263,-188 242,-450 46,-680 55,-211 -34,-379 -94,-486 z"
       id="path70"
       inkscape:connector-curvature="0"
       style="fill:#ba3d3c" /><path
       class="fil6"
       d="m 14434,9889 c 682,-405 -453,-1414 -447,-1615 106,-332 19,-1689 -39,-1438 -557,1432 -549,530 -1078,2291 -247,-60 -844,36 -652,481 -134,22 -792,121 -453,598 l -110,214 c -284,27 -603,152 -335,372 210,253 2476,808 3161,263 263,-188 242,-450 46,-680 55,-211 -34,-379 -94,-486 z"
       id="path72"
       inkscape:connector-curvature="0"
       style="fill:#fefefe" /><path
       class="fil7"
       d="m 13278,9238 c -209,-132 -427,-314 -2,-680 566,-625 711,-2086 688,-1676 l -24,430 c -48,1031 -322,1182 -267,1745 l -394,181 z"
       id="path74"
       style="fill:url(#id7)"
       inkscape:connector-curvature="0" /><path
       class="fil6"
       d="m 13353,9268 44,12 28,5 34,5 36,1 50,1 49,-6 64,5 59,10 58,21 67,30 273,158 12,5 13,2 10,-1 10,-6 c 6,-4 20,-18 31,-35 8,-13 6,-13 10,-14 l 17,-37 9,-23 8,-27 6,-30 3,-27 2,-30 -3,-25 -4,-22 -8,-30 -8,-25 -14,-24 -12,-21 -20,-22 -90,-79 -121,-78 -115,-53 -131,-42 -111,-28 -117,-14 -92,-6 -53,3 c -74,9 -205,11 -206,120 -1,75 24,257 211,329 z"
       id="path76"
       inkscape:connector-curvature="0"
       style="fill:#fefefe" /><path
       class="fil6"
       d="m 12687,10260 34,7 21,5 25,8 26,10 35,15 32,19 46,17 45,12 48,5 57,3 245,-12 10,0 9,3 7,4 5,7 c 3,4 8,17 9,31 1,10 -1,10 2,12 l -1,28 -2,17 -4,19 -7,20 -7,18 -9,19 -11,15 -11,12 -16,16 -14,13 -18,11 -16,9 -22,7 -90,21 -111,10 -98,-3 -105,-15 -87,-17 -86,-28 -66,-25 -36,-18 -40,-26 -24,-29 -10,-30 5,-23 8,-25 12,-25 16,-27 18,-23 25,-23 25,-15 27,-15 29,-9 37,-3 34,-1 z"
       id="path78"
       inkscape:connector-curvature="0"
       style="fill:#fefefe" /><path
       class="fil8"
       d="m 12460,9762 c -198,10 -357,-340 -203,-488 213,-135 823,-204 1179,84 102,72 102,521 -88,473 -77,-52 -287,-266 -888,-69 z"
       id="path80"
       style="fill:url(#id6)"
       inkscape:connector-curvature="0" /><path
       class="fil6"
       d="m 13525,9240 c 151,-109 461,231 244,536 -318,313 -1478,703 -2137,421 -29,-27 -154,-305 190,-542 501,-289 756,208 1703,-416 z"
       id="path82"
       inkscape:connector-curvature="0"
       style="fill:#fefefe" /><path
       class="fil9"
       d="m 13412,9353 c 216,99 588,155 372,461 -318,313 -1478,703 -2137,421 -29,-27 -154,-305 190,-542 501,-289 588,193 1575,-340 z"
       id="path84"
       style="fill:url(#id3)"
       inkscape:connector-curvature="0" /><path
       class="fil10"
       d="m 14479,10377 c 156,269 151,442 -123,519 -572,244 -1953,362 -2941,-75 -41,-29 -431,-254 208,-367 209,-45 1272,459 2857,-77 z"
       id="path86"
       inkscape:connector-curvature="0"
       style="fill:#933931" /><path
       class="fil11"
       d="m 14494,10402 c 156,286 128,507 -138,615 -583,235 -1982,354 -2933,-151 -20,-5 -439,-267 200,-388 209,-48 1286,495 2871,-76 z"
       id="path88"
       style="fill:url(#id8)"
       inkscape:connector-curvature="0" /><path
       class="fil12"
       d="m 12875,10698 c 326,-2 1267,237 1037,328 -762,315 -2588,-273 -2528,-398 59,-125 1166,72 1491,70 z"
       id="path90"
       style="fill:url(#id1)"
       inkscape:connector-curvature="0" /><path
       class="fil13"
       d="m 13853,9661 c -54,601 -1678,708 -2037,680 -219,-55 -297,-484 24,-592 88,-26 337,20 470,90 393,205 1440,163 1543,-178 z"
       id="path92"
       inkscape:connector-curvature="0"
       style="fill:#a92e2f" /><path
       class="fil6"
       d="m 13849,9695 c -55,603 -1682,710 -2043,682 -220,-55 -298,-486 24,-594 88,-26 338,20 471,90 394,206 1444,164 1547,-178 z"
       id="path94"
       inkscape:connector-curvature="0"
       style="fill:#fefefe" /><path
       class="fil10"
       d="m 12622,10169 c -83,56 -294,230 -10,368 428,206 2513,-34 1691,-1585 -70,-132 -27,-79 -287,-125 -254,-22 40,-941 -1,-1232 -85,-1829 49,344 -596,927 -85,73 -202,352 173,485 191,109 560,129 492,488 -114,343 -689,644 -1460,676 z"
       id="path96"
       inkscape:connector-curvature="0"
       style="fill:#933931" /><path
       class="fil14"
       d="m 11740,10334 c 287,122 432,153 518,171 -187,-14 -689,-178 -518,-171 z"
       id="path98"
       inkscape:connector-curvature="0"
       style="fill:#e29b62" /><path
       class="fil15"
       d="m 12680,10165 c -78,54 -264,211 4,340 404,194 2373,-44 1599,-1519 -66,-125 -25,-76 -271,-118 -240,-20 38,-897 0,-1175 -78,-1743 46,328 -564,886 -80,70 -191,336 163,461 180,103 529,120 464,463 -108,328 -665,627 -1394,661 z"
       id="path100"
       style="fill:url(#id4)"
       inkscape:connector-curvature="0" /><path
       class="fil6"
       d="m 13078,9223 c -304,-63 -699,63 -651,-3 270,-99 755,-17 651,3 z"
       id="path102"
       inkscape:connector-curvature="0"
       style="fill:#fefefe" /></g></svg>